<svg width="97" height="96" viewBox="0 0 97 96" fill="none" xmlns="http://www.w3.org/2000/svg">
<path d="M88.5 52V60C88.5 80 80.5 88 60.5 88H36.5C16.5 88 8.5 80 8.5 60V53.92" stroke="white" stroke-width="9" stroke-linecap="round" stroke-linejoin="round"/>
<path d="M44.5 8H36.5C16.5 8 8.5 16 8.5 36" stroke="white" stroke-width="9" stroke-linecap="round" stroke-linejoin="round"/>
<path d="M80.22 36.04L84.42 31.84C89.86 26.4 92.42 20.08 84.42 12.08C76.42 4.07997 70.1 6.63997 64.66 12.08L33.14 43.6C31.94 44.8 30.74 47.16 30.5 48.88L28.78 60.92C28.14 65.28 31.22 68.32 35.58 67.72L47.62 66C49.3 65.76 51.66 64.56 52.9 63.36L65.62 50.64L68.54 47.72" stroke="white" stroke-width="9" stroke-miterlimit="10" stroke-linecap="round" stroke-linejoin="round"/>
<path d="M60.1399 16.6C62.8199 26.16 70.2999 33.64 79.8999 36.36" stroke="white" stroke-width="9" stroke-miterlimit="10" stroke-linecap="round" stroke-linejoin="round"/>
</svg>
