<svg width="96" height="96" viewBox="0 0 96 96" fill="none" xmlns="http://www.w3.org/2000/svg">
<path d="M88 52V60C88 80 80 88 60 88H36C16 88 8 80 8 60V53.92" stroke="#2B2B2B" stroke-width="9" stroke-linecap="round" stroke-linejoin="round"/>
<path d="M44 8H36C16 8 8 16 8 36" stroke="#2B2B2B" stroke-width="9" stroke-linecap="round" stroke-linejoin="round"/>
<path d="M79.72 36.04L83.92 31.84C89.36 26.4 91.92 20.08 83.92 12.08C75.92 4.07997 69.6 6.63997 64.16 12.08L32.64 43.6C31.44 44.8 30.24 47.16 30 48.88L28.28 60.92C27.64 65.28 30.72 68.32 35.08 67.72L47.12 66C48.8 65.76 51.16 64.56 52.4 63.36L65.12 50.64L68.04 47.72" stroke="#2B2B2B" stroke-width="9" stroke-miterlimit="10" stroke-linecap="round" stroke-linejoin="round"/>
<path d="M59.64 16.6C62.32 26.16 69.8 33.64 79.4 36.36" stroke="#2B2B2B" stroke-width="9" stroke-miterlimit="10" stroke-linecap="round" stroke-linejoin="round"/>
</svg>
