<svg width="165" height="49" viewBox="0 0 165 49" fill="none" xmlns="http://www.w3.org/2000/svg">
<path d="M44 26V30C44 40 40 44 30 44H18C8 44 4 40 4 30V26.96" stroke="#2B2B2B" stroke-width="4.5" stroke-linecap="round" stroke-linejoin="round"/>
<path d="M22 4H18C8 4 4 8 4 18" stroke="#2B2B2B" stroke-width="4.5" stroke-linecap="round" stroke-linejoin="round"/>
<path d="M39.86 18.02L41.96 15.92C44.68 13.2 45.96 10.04 41.96 6.04C37.96 2.04 34.8 3.32 32.08 6.04L16.32 21.8C15.72 22.4 15.12 23.58 15 24.44L14.14 30.46C13.82 32.64 15.36 34.16 17.54 33.86L23.56 33C24.4 32.88 25.58 32.28 26.2 31.68L32.56 25.32L34.02 23.86" stroke="#2B2B2B" stroke-width="4.5" stroke-miterlimit="10" stroke-linecap="round" stroke-linejoin="round"/>
<path d="M29.8199 8.3C31.1599 13.08 34.8999 16.82 39.6999 18.18" stroke="#2B2B2B" stroke-width="4.5" stroke-miterlimit="10" stroke-linecap="round" stroke-linejoin="round"/>
<path d="M73.5156 13.0781H68.8594L68.8437 9.76563H72.8125C73.4375 9.76563 73.9479 9.66146 74.3437 9.45313C74.75 9.23438 75.0469 8.91667 75.2344 8.5C75.4323 8.07292 75.5312 7.55729 75.5312 6.95313C75.5312 6.25521 75.4427 5.69792 75.2656 5.28125C75.0885 4.85417 74.8021 4.54167 74.4062 4.34375C74.0104 4.14583 73.4948 4.04688 72.8594 4.04688H70.4219V23H65.8437V0.250001H72.8594C73.9948 0.250001 75.0104 0.375001 75.9062 0.625001C76.8021 0.875001 77.5625 1.25521 78.1875 1.76563C78.8125 2.27604 79.2865 2.92188 79.6094 3.70313C79.9427 4.48438 80.1094 5.40625 80.1094 6.46875C80.1094 7.40625 79.9219 8.27083 79.5469 9.0625C79.1719 9.85417 78.5833 10.5 77.7812 11C76.9896 11.5 75.9531 11.7813 74.6719 11.8438L73.5156 13.0781ZM73.3594 23H67.5625L69.3906 19.2188H73.3594C73.9635 19.2188 74.4531 19.0885 74.8281 18.8281C75.2031 18.5677 75.474 18.2188 75.6406 17.7813C75.8073 17.3333 75.8906 16.8229 75.8906 16.25C75.8906 15.6042 75.8125 15.0417 75.6562 14.5625C75.5104 14.0833 75.2656 13.7188 74.9219 13.4688C74.5781 13.2083 74.1146 13.0781 73.5312 13.0781H69.5937L69.625 9.76563H74.4062L75.4844 11.0781C76.7031 11.0365 77.6771 11.2708 78.4062 11.7813C79.1354 12.2813 79.6562 12.9375 79.9687 13.75C80.2917 14.5521 80.4531 15.4063 80.4531 16.3125C80.4531 17.7708 80.1771 19 79.625 20C79.0833 20.9896 78.2865 21.7396 77.2344 22.25C76.1823 22.75 74.8906 23 73.3594 23ZM94.5156 19.375V23H86.2969V19.375H94.5156ZM87.7969 4.79688V23H83.4219V4.79688H87.7969ZM110.609 13.5625V14.25C110.609 15.6354 110.427 16.8854 110.062 18C109.708 19.1042 109.208 20.0521 108.562 20.8438C107.917 21.625 107.146 22.224 106.25 22.6406C105.365 23.0469 104.391 23.25 103.328 23.25C102.255 23.25 101.271 23.0469 100.375 22.6406C99.4896 22.224 98.7187 21.625 98.0625 20.8438C97.4062 20.0521 96.8958 19.1042 96.5312 18C96.1667 16.8854 95.9844 15.6354 95.9844 14.25V13.5625C95.9844 12.1667 96.1667 10.9167 96.5312 9.8125C96.8958 8.69792 97.401 7.75 98.0469 6.96875C98.7031 6.1875 99.474 5.58854 100.359 5.17188C101.245 4.75521 102.224 4.54688 103.297 4.54688C104.349 4.54688 105.323 4.75521 106.219 5.17188C107.125 5.58854 107.906 6.1875 108.562 6.96875C109.219 7.75 109.724 8.69792 110.078 9.8125C110.432 10.9167 110.609 12.1667 110.609 13.5625ZM106.219 14.25V13.5156C106.219 12.6615 106.151 11.9063 106.016 11.25C105.88 10.5833 105.687 10.0208 105.437 9.5625C105.187 9.10417 104.88 8.76042 104.516 8.53125C104.161 8.29167 103.755 8.17188 103.297 8.17188C102.828 8.17188 102.411 8.29167 102.047 8.53125C101.682 8.77083 101.375 9.11979 101.125 9.57813C100.885 10.026 100.703 10.5833 100.578 11.25C100.453 11.9063 100.391 12.6615 100.391 13.5156V14.25C100.391 15.1042 100.453 15.8646 100.578 16.5313C100.703 17.1875 100.891 17.75 101.141 18.2188C101.401 18.6875 101.708 19.0417 102.062 19.2813C102.427 19.5208 102.849 19.6406 103.328 19.6406C103.776 19.6406 104.177 19.5208 104.531 19.2813C104.896 19.0417 105.198 18.6875 105.437 18.2188C105.687 17.75 105.88 17.1875 106.016 16.5313C106.151 15.8646 106.219 15.1042 106.219 14.25ZM126.75 13.1563V20.7813C126.458 21.125 126.021 21.4896 125.437 21.875C124.854 22.2604 124.125 22.5885 123.25 22.8594C122.375 23.1198 121.333 23.25 120.125 23.25C119.021 23.25 118.016 23.0573 117.109 22.6719C116.214 22.276 115.443 21.7031 114.797 20.9531C114.151 20.1927 113.651 19.2656 113.297 18.1719C112.943 17.0677 112.766 15.8021 112.766 14.375V13.4219C112.766 11.9844 112.937 10.7188 113.281 9.625C113.635 8.53125 114.13 7.60417 114.766 6.84375C115.401 6.08333 116.156 5.51042 117.031 5.125C117.906 4.72917 118.87 4.53125 119.922 4.53125C121.464 4.53125 122.714 4.80208 123.672 5.34375C124.63 5.875 125.354 6.61979 125.844 7.57813C126.333 8.52604 126.635 9.61979 126.75 10.8594H122.516C122.453 10.2656 122.328 9.77083 122.141 9.375C121.953 8.97917 121.687 8.68229 121.344 8.48438C121.01 8.27604 120.573 8.17188 120.031 8.17188C119.604 8.17188 119.214 8.27604 118.859 8.48438C118.505 8.69271 118.198 9.01042 117.937 9.4375C117.687 9.86458 117.495 10.4063 117.359 11.0625C117.224 11.7188 117.156 12.4948 117.156 13.3906V14.375C117.156 15.2604 117.224 16.0313 117.359 16.6875C117.495 17.3438 117.693 17.8906 117.953 18.3281C118.214 18.7656 118.552 19.0938 118.969 19.3125C119.385 19.5208 119.875 19.625 120.437 19.625C120.99 19.625 121.406 19.5521 121.687 19.4063C121.979 19.2604 122.203 19.1146 122.359 18.9688V16.3594H119.781V13.1563H126.75Z" fill="#565656"/>
<path d="M71.4766 33.2812L67.3516 48H64.375L69.7891 30.9375H71.6406L71.4766 33.2812ZM74.7695 48L70.6328 33.2812L70.4336 30.9375H72.3203L77.7578 48H74.7695ZM74.8398 41.6602V44.0508H66.8945V41.6602H74.8398ZM85.6914 44.4141C85.6914 44.1641 85.6602 43.9375 85.5977 43.7344C85.5352 43.5312 85.4219 43.3477 85.2578 43.1836C85.1016 43.0195 84.8828 42.8672 84.6016 42.7266C84.3281 42.5781 83.9766 42.4375 83.5469 42.3047C82.8516 42.1094 82.2383 41.8906 81.707 41.6484C81.1836 41.4062 80.7422 41.1211 80.3828 40.793C80.0312 40.457 79.7656 40.0664 79.5859 39.6211C79.4062 39.1758 79.3164 38.6562 79.3164 38.0625C79.3164 37.4844 79.4219 36.957 79.6328 36.4805C79.8438 36.0039 80.1445 35.5938 80.5352 35.25C80.9336 34.8984 81.3984 34.6289 81.9297 34.4414C82.4688 34.2539 83.0625 34.1602 83.7109 34.1602C84.6562 34.1602 85.4766 34.3398 86.1719 34.6992C86.8672 35.0508 87.4062 35.543 87.7891 36.1758C88.1719 36.8086 88.3633 37.5391 88.3633 38.3672H85.6328C85.6328 37.9922 85.5625 37.6523 85.4219 37.3477C85.2812 37.0352 85.0703 36.7891 84.7891 36.6094C84.5078 36.4219 84.1484 36.3281 83.7109 36.3281C83.2969 36.3281 82.9609 36.4062 82.7031 36.5625C82.4453 36.7109 82.2578 36.9141 82.1406 37.1719C82.0234 37.4219 81.9648 37.6914 81.9648 37.9805C81.9648 38.207 82.0039 38.4141 82.082 38.6016C82.168 38.7891 82.3008 38.9609 82.4805 39.1172C82.6602 39.2656 82.8906 39.4102 83.1719 39.5508C83.4609 39.6836 83.8086 39.8164 84.2148 39.9492C84.9023 40.1367 85.5039 40.3594 86.0195 40.6172C86.5352 40.875 86.9648 41.1797 87.3086 41.5312C87.6523 41.875 87.9102 42.2812 88.082 42.75C88.2539 43.2109 88.3398 43.7422 88.3398 44.3438C88.3398 44.9453 88.2344 45.4844 88.0234 45.9609C87.8203 46.4375 87.5195 46.8398 87.1211 47.168C86.7305 47.4961 86.2578 47.75 85.7031 47.9297C85.1562 48.1016 84.5352 48.1875 83.8398 48.1875C83.2305 48.1875 82.6328 48.1016 82.0469 47.9297C81.4609 47.7578 80.9336 47.4922 80.4648 47.1328C79.9961 46.7734 79.6211 46.3164 79.3398 45.7617C79.0586 45.1992 78.918 44.5352 78.918 43.7695H81.6719C81.6719 44.1758 81.7188 44.5234 81.8125 44.8125C81.9062 45.0938 82.0469 45.3242 82.2344 45.5039C82.4297 45.6836 82.668 45.8164 82.9492 45.9023C83.2383 45.9883 83.5664 46.0312 83.9336 46.0312C84.3711 46.0312 84.7188 45.957 84.9766 45.8086C85.2344 45.6602 85.418 45.4648 85.5273 45.2227C85.6367 44.9727 85.6914 44.7031 85.6914 44.4141ZM96.8477 44.4141C96.8477 44.1641 96.8164 43.9375 96.7539 43.7344C96.6914 43.5312 96.5781 43.3477 96.4141 43.1836C96.2578 43.0195 96.0391 42.8672 95.7578 42.7266C95.4844 42.5781 95.1328 42.4375 94.7031 42.3047C94.0078 42.1094 93.3945 41.8906 92.8633 41.6484C92.3398 41.4062 91.8984 41.1211 91.5391 40.793C91.1875 40.457 90.9219 40.0664 90.7422 39.6211C90.5625 39.1758 90.4727 38.6562 90.4727 38.0625C90.4727 37.4844 90.5781 36.957 90.7891 36.4805C91 36.0039 91.3008 35.5938 91.6914 35.25C92.0898 34.8984 92.5547 34.6289 93.0859 34.4414C93.625 34.2539 94.2188 34.1602 94.8672 34.1602C95.8125 34.1602 96.6328 34.3398 97.3281 34.6992C98.0234 35.0508 98.5625 35.543 98.9453 36.1758C99.3281 36.8086 99.5195 37.5391 99.5195 38.3672H96.7891C96.7891 37.9922 96.7188 37.6523 96.5781 37.3477C96.4375 37.0352 96.2266 36.7891 95.9453 36.6094C95.6641 36.4219 95.3047 36.3281 94.8672 36.3281C94.4531 36.3281 94.1172 36.4062 93.8594 36.5625C93.6016 36.7109 93.4141 36.9141 93.2969 37.1719C93.1797 37.4219 93.1211 37.6914 93.1211 37.9805C93.1211 38.207 93.1602 38.4141 93.2383 38.6016C93.3242 38.7891 93.457 38.9609 93.6367 39.1172C93.8164 39.2656 94.0469 39.4102 94.3281 39.5508C94.6172 39.6836 94.9648 39.8164 95.3711 39.9492C96.0586 40.1367 96.6602 40.3594 97.1758 40.6172C97.6914 40.875 98.1211 41.1797 98.4648 41.5312C98.8086 41.875 99.0664 42.2812 99.2383 42.75C99.4102 43.2109 99.4961 43.7422 99.4961 44.3438C99.4961 44.9453 99.3906 45.4844 99.1797 45.9609C98.9766 46.4375 98.6758 46.8398 98.2773 47.168C97.8867 47.4961 97.4141 47.75 96.8594 47.9297C96.3125 48.1016 95.6914 48.1875 94.9961 48.1875C94.3867 48.1875 93.7891 48.1016 93.2031 47.9297C92.6172 47.7578 92.0898 47.4922 91.6211 47.1328C91.1523 46.7734 90.7773 46.3164 90.4961 45.7617C90.2148 45.1992 90.0742 44.5352 90.0742 43.7695H92.8281C92.8281 44.1758 92.875 44.5234 92.9688 44.8125C93.0625 45.0938 93.2031 45.3242 93.3906 45.5039C93.5859 45.6836 93.8242 45.8164 94.1055 45.9023C94.3945 45.9883 94.7227 46.0312 95.0898 46.0312C95.5273 46.0312 95.875 45.957 96.1328 45.8086C96.3906 45.6602 96.5742 45.4648 96.6836 45.2227C96.793 44.9727 96.8477 44.7031 96.8477 44.4141ZM104.582 34.3477V48H101.84V34.3477H104.582ZM113.582 44.4141C113.582 44.1641 113.551 43.9375 113.488 43.7344C113.426 43.5312 113.312 43.3477 113.148 43.1836C112.992 43.0195 112.773 42.8672 112.492 42.7266C112.219 42.5781 111.867 42.4375 111.438 42.3047C110.742 42.1094 110.129 41.8906 109.598 41.6484C109.074 41.4062 108.633 41.1211 108.273 40.793C107.922 40.457 107.656 40.0664 107.477 39.6211C107.297 39.1758 107.207 38.6562 107.207 38.0625C107.207 37.4844 107.312 36.957 107.523 36.4805C107.734 36.0039 108.035 35.5938 108.426 35.25C108.824 34.8984 109.289 34.6289 109.82 34.4414C110.359 34.2539 110.953 34.1602 111.602 34.1602C112.547 34.1602 113.367 34.3398 114.062 34.6992C114.758 35.0508 115.297 35.543 115.68 36.1758C116.062 36.8086 116.254 37.5391 116.254 38.3672H113.523C113.523 37.9922 113.453 37.6523 113.312 37.3477C113.172 37.0352 112.961 36.7891 112.68 36.6094C112.398 36.4219 112.039 36.3281 111.602 36.3281C111.188 36.3281 110.852 36.4062 110.594 36.5625C110.336 36.7109 110.148 36.9141 110.031 37.1719C109.914 37.4219 109.855 37.6914 109.855 37.9805C109.855 38.207 109.895 38.4141 109.973 38.6016C110.059 38.7891 110.191 38.9609 110.371 39.1172C110.551 39.2656 110.781 39.4102 111.062 39.5508C111.352 39.6836 111.699 39.8164 112.105 39.9492C112.793 40.1367 113.395 40.3594 113.91 40.6172C114.426 40.875 114.855 41.1797 115.199 41.5312C115.543 41.875 115.801 42.2812 115.973 42.75C116.145 43.2109 116.23 43.7422 116.23 44.3438C116.23 44.9453 116.125 45.4844 115.914 45.9609C115.711 46.4375 115.41 46.8398 115.012 47.168C114.621 47.4961 114.148 47.75 113.594 47.9297C113.047 48.1016 112.426 48.1875 111.73 48.1875C111.121 48.1875 110.523 48.1016 109.938 47.9297C109.352 47.7578 108.824 47.4922 108.355 47.1328C107.887 46.7734 107.512 46.3164 107.23 45.7617C106.949 45.1992 106.809 44.5352 106.809 43.7695H109.562C109.562 44.1758 109.609 44.5234 109.703 44.8125C109.797 45.0938 109.938 45.3242 110.125 45.5039C110.32 45.6836 110.559 45.8164 110.84 45.9023C111.129 45.9883 111.457 46.0312 111.824 46.0312C112.262 46.0312 112.609 45.957 112.867 45.8086C113.125 45.6602 113.309 45.4648 113.418 45.2227C113.527 44.9727 113.582 44.7031 113.582 44.4141ZM124.094 34.3477V48H121.375V34.3477H124.094ZM127.797 34.3477V36.6562H117.73V34.3477H127.797ZM134.746 37.2188L131.418 48H128.664L133.293 34.3477H135.098L134.746 37.2188ZM137.641 48L134.289 37.207L133.949 34.3477H135.789L140.395 48H137.641ZM137.723 42.9258V45.082H131.055V42.9258H137.723ZM152.113 34.3477V48H149.383L144.648 39.0469V48H141.977V34.3477H144.707L149.441 43.3477V34.3477H152.113ZM160.352 34.3477V48H157.633V34.3477H160.352ZM164.055 34.3477V36.6562H153.988V34.3477H164.055Z" fill="#565656"/>
</svg>
