<svg width="101" height="109" viewBox="0 0 101 109" fill="none" xmlns="http://www.w3.org/2000/svg">
<path d="M70.5 26V30C70.5 40 66.5 44 56.5 44H44.5C34.5 44 30.5 40 30.5 30V26.96" stroke="white" stroke-width="4.5" stroke-linecap="round" stroke-linejoin="round"/>
<path d="M48.5 4H44.5C34.5 4 30.5 8 30.5 18" stroke="white" stroke-width="4.5" stroke-linecap="round" stroke-linejoin="round"/>
<path d="M66.36 18.02L68.46 15.92C71.18 13.2 72.46 10.04 68.46 6.04002C64.46 2.04002 61.3 3.32002 58.58 6.04002L42.82 21.8C42.22 22.4 41.62 23.58 41.5 24.44L40.64 30.46C40.32 32.64 41.86 34.16 44.04 33.86L50.06 33C50.9 32.88 52.08 32.28 52.7 31.68L59.06 25.32L60.52 23.86" stroke="white" stroke-width="4.5" stroke-miterlimit="10" stroke-linecap="round" stroke-linejoin="round"/>
<path d="M56.3201 8.29999C57.6601 13.08 61.4001 16.82 66.2001 18.18" stroke="white" stroke-width="4.5" stroke-miterlimit="10" stroke-linecap="round" stroke-linejoin="round"/>
<path d="M28.0156 73.0781H23.3594L23.3437 69.7656H27.3125C27.9375 69.7656 28.4479 69.6615 28.8437 69.4531C29.25 69.2344 29.5469 68.9167 29.7344 68.5C29.9323 68.0729 30.0312 67.5573 30.0312 66.9531C30.0312 66.2552 29.9427 65.6979 29.7656 65.2813C29.5885 64.8542 29.3021 64.5417 28.9062 64.3438C28.5104 64.1458 27.9948 64.0469 27.3594 64.0469H24.9219V83H20.3437V60.25H27.3594C28.4948 60.25 29.5104 60.375 30.4062 60.625C31.3021 60.875 32.0625 61.2552 32.6875 61.7656C33.3125 62.276 33.7865 62.9219 34.1094 63.7031C34.4427 64.4844 34.6094 65.4063 34.6094 66.4688C34.6094 67.4063 34.4219 68.2708 34.0469 69.0625C33.6719 69.8542 33.0833 70.5 32.2812 71C31.4896 71.5 30.4531 71.7813 29.1719 71.8438L28.0156 73.0781ZM27.8594 83H22.0625L23.8906 79.2188H27.8594C28.4635 79.2188 28.9531 79.0885 29.3281 78.8281C29.7031 78.5677 29.974 78.2188 30.1406 77.7813C30.3073 77.3333 30.3906 76.8229 30.3906 76.25C30.3906 75.6042 30.3125 75.0417 30.1562 74.5625C30.0104 74.0833 29.7656 73.7188 29.4219 73.4688C29.0781 73.2083 28.6146 73.0781 28.0312 73.0781H24.0937L24.125 69.7656H28.9062L29.9844 71.0781C31.2031 71.0365 32.1771 71.2708 32.9062 71.7813C33.6354 72.2813 34.1562 72.9375 34.4687 73.75C34.7917 74.5521 34.9531 75.4063 34.9531 76.3125C34.9531 77.7708 34.6771 79 34.125 80C33.5833 80.9896 32.7865 81.7396 31.7344 82.25C30.6823 82.75 29.3906 83 27.8594 83ZM49.0156 79.375V83H40.7969V79.375H49.0156ZM42.2969 64.7969V83H37.9219V64.7969H42.2969ZM65.1094 73.5625V74.25C65.1094 75.6354 64.9271 76.8854 64.5625 78C64.2083 79.1042 63.7083 80.0521 63.0625 80.8438C62.4167 81.625 61.6458 82.224 60.75 82.6406C59.8646 83.0469 58.8906 83.25 57.8281 83.25C56.7552 83.25 55.7708 83.0469 54.875 82.6406C53.9896 82.224 53.2187 81.625 52.5625 80.8438C51.9062 80.0521 51.3958 79.1042 51.0312 78C50.6667 76.8854 50.4844 75.6354 50.4844 74.25V73.5625C50.4844 72.1667 50.6667 70.9167 51.0312 69.8125C51.3958 68.6979 51.901 67.75 52.5469 66.9688C53.2031 66.1875 53.974 65.5885 54.8594 65.1719C55.7448 64.7552 56.724 64.5469 57.7969 64.5469C58.849 64.5469 59.8229 64.7552 60.7187 65.1719C61.625 65.5885 62.4062 66.1875 63.0625 66.9688C63.7187 67.75 64.224 68.6979 64.5781 69.8125C64.9323 70.9167 65.1094 72.1667 65.1094 73.5625ZM60.7187 74.25V73.5156C60.7187 72.6615 60.651 71.9063 60.5156 71.25C60.3802 70.5833 60.1875 70.0208 59.9375 69.5625C59.6875 69.1042 59.3802 68.7604 59.0156 68.5313C58.6615 68.2917 58.2552 68.1719 57.7969 68.1719C57.3281 68.1719 56.9115 68.2917 56.5469 68.5313C56.1823 68.7708 55.875 69.1198 55.625 69.5781C55.3854 70.026 55.2031 70.5833 55.0781 71.25C54.9531 71.9063 54.8906 72.6615 54.8906 73.5156V74.25C54.8906 75.1042 54.9531 75.8646 55.0781 76.5313C55.2031 77.1875 55.3906 77.75 55.6406 78.2188C55.901 78.6875 56.2083 79.0417 56.5625 79.2813C56.9271 79.5208 57.349 79.6406 57.8281 79.6406C58.276 79.6406 58.6771 79.5208 59.0312 79.2813C59.3958 79.0417 59.6979 78.6875 59.9375 78.2188C60.1875 77.75 60.3802 77.1875 60.5156 76.5313C60.651 75.8646 60.7187 75.1042 60.7187 74.25ZM81.25 73.1563V80.7813C80.9583 81.125 80.5208 81.4896 79.9375 81.875C79.3542 82.2604 78.625 82.5885 77.75 82.8594C76.875 83.1198 75.8333 83.25 74.625 83.25C73.5208 83.25 72.5156 83.0573 71.6094 82.6719C70.7135 82.276 69.9427 81.7031 69.2969 80.9531C68.651 80.1927 68.151 79.2656 67.7969 78.1719C67.4427 77.0677 67.2656 75.8021 67.2656 74.375V73.4219C67.2656 71.9844 67.4375 70.7188 67.7812 69.625C68.1354 68.5313 68.6302 67.6042 69.2656 66.8438C69.901 66.0833 70.6562 65.5104 71.5312 65.125C72.4062 64.7292 73.3698 64.5313 74.4219 64.5313C75.9635 64.5313 77.2135 64.8021 78.1719 65.3438C79.1302 65.875 79.8542 66.6198 80.3437 67.5781C80.8333 68.526 81.1354 69.6198 81.25 70.8594H77.0156C76.9531 70.2656 76.8281 69.7708 76.6406 69.375C76.4531 68.9792 76.1875 68.6823 75.8437 68.4844C75.5104 68.276 75.0729 68.1719 74.5312 68.1719C74.1042 68.1719 73.7135 68.276 73.3594 68.4844C73.0052 68.6927 72.6979 69.0104 72.4375 69.4375C72.1875 69.8646 71.9948 70.4063 71.8594 71.0625C71.724 71.7188 71.6562 72.4948 71.6562 73.3906V74.375C71.6562 75.2604 71.724 76.0313 71.8594 76.6875C71.9948 77.3438 72.1927 77.8906 72.4531 78.3281C72.7135 78.7656 73.0521 79.0938 73.4687 79.3125C73.8854 79.5208 74.375 79.625 74.9375 79.625C75.4896 79.625 75.9062 79.5521 76.1875 79.4063C76.4792 79.2604 76.7031 79.1146 76.8594 78.9688V76.3594H74.2812V73.1563H81.25Z" fill="#E7E7E7"/>
<path d="M7.47656 93.2812L3.35156 108H0.375L5.78906 90.9375H7.64062L7.47656 93.2812ZM10.7695 108L6.63281 93.2812L6.43359 90.9375H8.32031L13.7578 108H10.7695ZM10.8398 101.66V104.051H2.89453V101.66H10.8398ZM21.6914 104.414C21.6914 104.164 21.6602 103.938 21.5977 103.734C21.5352 103.531 21.4219 103.348 21.2578 103.184C21.1016 103.02 20.8828 102.867 20.6016 102.727C20.3281 102.578 19.9766 102.438 19.5469 102.305C18.8516 102.109 18.2383 101.891 17.707 101.648C17.1836 101.406 16.7422 101.121 16.3828 100.793C16.0312 100.457 15.7656 100.066 15.5859 99.6211C15.4062 99.1758 15.3164 98.6562 15.3164 98.0625C15.3164 97.4844 15.4219 96.957 15.6328 96.4805C15.8438 96.0039 16.1445 95.5938 16.5352 95.25C16.9336 94.8984 17.3984 94.6289 17.9297 94.4414C18.4688 94.2539 19.0625 94.1602 19.7109 94.1602C20.6562 94.1602 21.4766 94.3398 22.1719 94.6992C22.8672 95.0508 23.4062 95.543 23.7891 96.1758C24.1719 96.8086 24.3633 97.5391 24.3633 98.3672H21.6328C21.6328 97.9922 21.5625 97.6523 21.4219 97.3477C21.2812 97.0352 21.0703 96.7891 20.7891 96.6094C20.5078 96.4219 20.1484 96.3281 19.7109 96.3281C19.2969 96.3281 18.9609 96.4062 18.7031 96.5625C18.4453 96.7109 18.2578 96.9141 18.1406 97.1719C18.0234 97.4219 17.9648 97.6914 17.9648 97.9805C17.9648 98.207 18.0039 98.4141 18.082 98.6016C18.168 98.7891 18.3008 98.9609 18.4805 99.1172C18.6602 99.2656 18.8906 99.4102 19.1719 99.5508C19.4609 99.6836 19.8086 99.8164 20.2148 99.9492C20.9023 100.137 21.5039 100.359 22.0195 100.617C22.5352 100.875 22.9648 101.18 23.3086 101.531C23.6523 101.875 23.9102 102.281 24.082 102.75C24.2539 103.211 24.3398 103.742 24.3398 104.344C24.3398 104.945 24.2344 105.484 24.0234 105.961C23.8203 106.438 23.5195 106.84 23.1211 107.168C22.7305 107.496 22.2578 107.75 21.7031 107.93C21.1562 108.102 20.5352 108.188 19.8398 108.188C19.2305 108.188 18.6328 108.102 18.0469 107.93C17.4609 107.758 16.9336 107.492 16.4648 107.133C15.9961 106.773 15.6211 106.316 15.3398 105.762C15.0586 105.199 14.918 104.535 14.918 103.77H17.6719C17.6719 104.176 17.7188 104.523 17.8125 104.812C17.9062 105.094 18.0469 105.324 18.2344 105.504C18.4297 105.684 18.668 105.816 18.9492 105.902C19.2383 105.988 19.5664 106.031 19.9336 106.031C20.3711 106.031 20.7188 105.957 20.9766 105.809C21.2344 105.66 21.418 105.465 21.5273 105.223C21.6367 104.973 21.6914 104.703 21.6914 104.414ZM32.8477 104.414C32.8477 104.164 32.8164 103.938 32.7539 103.734C32.6914 103.531 32.5781 103.348 32.4141 103.184C32.2578 103.02 32.0391 102.867 31.7578 102.727C31.4844 102.578 31.1328 102.438 30.7031 102.305C30.0078 102.109 29.3945 101.891 28.8633 101.648C28.3398 101.406 27.8984 101.121 27.5391 100.793C27.1875 100.457 26.9219 100.066 26.7422 99.6211C26.5625 99.1758 26.4727 98.6562 26.4727 98.0625C26.4727 97.4844 26.5781 96.957 26.7891 96.4805C27 96.0039 27.3008 95.5938 27.6914 95.25C28.0898 94.8984 28.5547 94.6289 29.0859 94.4414C29.625 94.2539 30.2188 94.1602 30.8672 94.1602C31.8125 94.1602 32.6328 94.3398 33.3281 94.6992C34.0234 95.0508 34.5625 95.543 34.9453 96.1758C35.3281 96.8086 35.5195 97.5391 35.5195 98.3672H32.7891C32.7891 97.9922 32.7188 97.6523 32.5781 97.3477C32.4375 97.0352 32.2266 96.7891 31.9453 96.6094C31.6641 96.4219 31.3047 96.3281 30.8672 96.3281C30.4531 96.3281 30.1172 96.4062 29.8594 96.5625C29.6016 96.7109 29.4141 96.9141 29.2969 97.1719C29.1797 97.4219 29.1211 97.6914 29.1211 97.9805C29.1211 98.207 29.1602 98.4141 29.2383 98.6016C29.3242 98.7891 29.457 98.9609 29.6367 99.1172C29.8164 99.2656 30.0469 99.4102 30.3281 99.5508C30.6172 99.6836 30.9648 99.8164 31.3711 99.9492C32.0586 100.137 32.6602 100.359 33.1758 100.617C33.6914 100.875 34.1211 101.18 34.4648 101.531C34.8086 101.875 35.0664 102.281 35.2383 102.75C35.4102 103.211 35.4961 103.742 35.4961 104.344C35.4961 104.945 35.3906 105.484 35.1797 105.961C34.9766 106.438 34.6758 106.84 34.2773 107.168C33.8867 107.496 33.4141 107.75 32.8594 107.93C32.3125 108.102 31.6914 108.188 30.9961 108.188C30.3867 108.188 29.7891 108.102 29.2031 107.93C28.6172 107.758 28.0898 107.492 27.6211 107.133C27.1523 106.773 26.7773 106.316 26.4961 105.762C26.2148 105.199 26.0742 104.535 26.0742 103.77H28.8281C28.8281 104.176 28.875 104.523 28.9688 104.812C29.0625 105.094 29.2031 105.324 29.3906 105.504C29.5859 105.684 29.8242 105.816 30.1055 105.902C30.3945 105.988 30.7227 106.031 31.0898 106.031C31.5273 106.031 31.875 105.957 32.1328 105.809C32.3906 105.66 32.5742 105.465 32.6836 105.223C32.793 104.973 32.8477 104.703 32.8477 104.414ZM40.582 94.3477V108H37.8398V94.3477H40.582ZM49.582 104.414C49.582 104.164 49.5508 103.938 49.4883 103.734C49.4258 103.531 49.3125 103.348 49.1484 103.184C48.9922 103.02 48.7734 102.867 48.4922 102.727C48.2188 102.578 47.8672 102.438 47.4375 102.305C46.7422 102.109 46.1289 101.891 45.5977 101.648C45.0742 101.406 44.6328 101.121 44.2734 100.793C43.9219 100.457 43.6562 100.066 43.4766 99.6211C43.2969 99.1758 43.207 98.6562 43.207 98.0625C43.207 97.4844 43.3125 96.957 43.5234 96.4805C43.7344 96.0039 44.0352 95.5938 44.4258 95.25C44.8242 94.8984 45.2891 94.6289 45.8203 94.4414C46.3594 94.2539 46.9531 94.1602 47.6016 94.1602C48.5469 94.1602 49.3672 94.3398 50.0625 94.6992C50.7578 95.0508 51.2969 95.543 51.6797 96.1758C52.0625 96.8086 52.2539 97.5391 52.2539 98.3672H49.5234C49.5234 97.9922 49.4531 97.6523 49.3125 97.3477C49.1719 97.0352 48.9609 96.7891 48.6797 96.6094C48.3984 96.4219 48.0391 96.3281 47.6016 96.3281C47.1875 96.3281 46.8516 96.4062 46.5938 96.5625C46.3359 96.7109 46.1484 96.9141 46.0312 97.1719C45.9141 97.4219 45.8555 97.6914 45.8555 97.9805C45.8555 98.207 45.8945 98.4141 45.9727 98.6016C46.0586 98.7891 46.1914 98.9609 46.3711 99.1172C46.5508 99.2656 46.7812 99.4102 47.0625 99.5508C47.3516 99.6836 47.6992 99.8164 48.1055 99.9492C48.793 100.137 49.3945 100.359 49.9102 100.617C50.4258 100.875 50.8555 101.18 51.1992 101.531C51.543 101.875 51.8008 102.281 51.9727 102.75C52.1445 103.211 52.2305 103.742 52.2305 104.344C52.2305 104.945 52.125 105.484 51.9141 105.961C51.7109 106.438 51.4102 106.84 51.0117 107.168C50.6211 107.496 50.1484 107.75 49.5938 107.93C49.0469 108.102 48.4258 108.188 47.7305 108.188C47.1211 108.188 46.5234 108.102 45.9375 107.93C45.3516 107.758 44.8242 107.492 44.3555 107.133C43.8867 106.773 43.5117 106.316 43.2305 105.762C42.9492 105.199 42.8086 104.535 42.8086 103.77H45.5625C45.5625 104.176 45.6094 104.523 45.7031 104.812C45.7969 105.094 45.9375 105.324 46.125 105.504C46.3203 105.684 46.5586 105.816 46.8398 105.902C47.1289 105.988 47.457 106.031 47.8242 106.031C48.2617 106.031 48.6094 105.957 48.8672 105.809C49.125 105.66 49.3086 105.465 49.418 105.223C49.5273 104.973 49.582 104.703 49.582 104.414ZM60.0938 94.3477V108H57.375V94.3477H60.0938ZM63.7969 94.3477V96.6562H53.7305V94.3477H63.7969ZM70.7461 97.2188L67.418 108H64.6641L69.293 94.3477H71.0977L70.7461 97.2188ZM73.6406 108L70.2891 97.207L69.9492 94.3477H71.7891L76.3945 108H73.6406ZM73.7227 102.926V105.082H67.0547V102.926H73.7227ZM88.1133 94.3477V108H85.3828L80.6484 99.0469V108H77.9766V94.3477H80.707L85.4414 103.348V94.3477H88.1133ZM96.3516 94.3477V108H93.6328V94.3477H96.3516ZM100.055 94.3477V96.6562H89.9883V94.3477H100.055Z" fill="#E7E7E7"/>
</svg>
