<svg width="166" height="49" viewBox="0 0 166 49" fill="none" xmlns="http://www.w3.org/2000/svg">
<path d="M44.0244 26V30C44.0244 40 40.0244 44 30.0244 44H18.0244C8.02441 44 4.02441 40 4.02441 30V26.96" stroke="white" stroke-width="4.5" stroke-linecap="round" stroke-linejoin="round"/>
<path d="M22.0244 4H18.0244C8.02441 4 4.02441 8 4.02441 18" stroke="white" stroke-width="4.5" stroke-linecap="round" stroke-linejoin="round"/>
<path d="M39.8844 18.02L41.9844 15.92C44.7044 13.2 45.9844 10.04 41.9844 6.04C37.9844 2.04 34.8244 3.32 32.1044 6.04L16.3444 21.8C15.7444 22.4 15.1444 23.58 15.0244 24.44L14.1644 30.46C13.8444 32.64 15.3844 34.16 17.5644 33.86L23.5844 33C24.4244 32.88 25.6044 32.28 26.2244 31.68L32.5844 25.32L34.0444 23.86" stroke="white" stroke-width="4.5" stroke-miterlimit="10" stroke-linecap="round" stroke-linejoin="round"/>
<path d="M29.8445 8.3C31.1845 13.08 34.9245 16.82 39.7245 18.18" stroke="white" stroke-width="4.5" stroke-miterlimit="10" stroke-linecap="round" stroke-linejoin="round"/>
<path d="M73.54 13.0781H68.8838L68.8682 9.76563H72.8369C73.4619 9.76563 73.9723 9.66146 74.3682 9.45313C74.7744 9.23438 75.0713 8.91667 75.2588 8.5C75.4567 8.07292 75.5557 7.55729 75.5557 6.95313C75.5557 6.25521 75.4671 5.69792 75.29 5.28125C75.113 4.85417 74.8265 4.54167 74.4307 4.34375C74.0348 4.14583 73.5192 4.04688 72.8838 4.04688H70.4463V23H65.8682V0.250001H72.8838C74.0192 0.250001 75.0348 0.375001 75.9307 0.625001C76.8265 0.875001 77.5869 1.25521 78.2119 1.76563C78.8369 2.27604 79.3109 2.92188 79.6338 3.70313C79.9671 4.48438 80.1338 5.40625 80.1338 6.46875C80.1338 7.40625 79.9463 8.27083 79.5713 9.0625C79.1963 9.85417 78.6077 10.5 77.8057 11C77.014 11.5 75.9775 11.7813 74.6963 11.8438L73.54 13.0781ZM73.3838 23H67.5869L69.415 19.2188H73.3838C73.988 19.2188 74.4775 19.0885 74.8525 18.8281C75.2275 18.5677 75.4984 18.2188 75.665 17.7813C75.8317 17.3333 75.915 16.8229 75.915 16.25C75.915 15.6042 75.8369 15.0417 75.6807 14.5625C75.5348 14.0833 75.29 13.7188 74.9463 13.4688C74.6025 13.2083 74.139 13.0781 73.5557 13.0781H69.6182L69.6494 9.76563H74.4307L75.5088 11.0781C76.7275 11.0365 77.7015 11.2708 78.4307 11.7813C79.1598 12.2813 79.6807 12.9375 79.9932 13.75C80.3161 14.5521 80.4775 15.4063 80.4775 16.3125C80.4775 17.7708 80.2015 19 79.6494 20C79.1077 20.9896 78.3109 21.7396 77.2588 22.25C76.2067 22.75 74.915 23 73.3838 23ZM94.54 19.375V23H86.3213V19.375H94.54ZM87.8213 4.79688V23H83.4463V4.79688H87.8213ZM110.634 13.5625V14.25C110.634 15.6354 110.451 16.8854 110.087 18C109.733 19.1042 109.233 20.0521 108.587 20.8438C107.941 21.625 107.17 22.224 106.274 22.6406C105.389 23.0469 104.415 23.25 103.353 23.25C102.28 23.25 101.295 23.0469 100.399 22.6406C99.514 22.224 98.7432 21.625 98.0869 20.8438C97.4307 20.0521 96.9202 19.1042 96.5557 18C96.1911 16.8854 96.0088 15.6354 96.0088 14.25V13.5625C96.0088 12.1667 96.1911 10.9167 96.5557 9.8125C96.9202 8.69792 97.4255 7.75 98.0713 6.96875C98.7275 6.1875 99.4984 5.58854 100.384 5.17188C101.269 4.75521 102.248 4.54688 103.321 4.54688C104.373 4.54688 105.347 4.75521 106.243 5.17188C107.149 5.58854 107.931 6.1875 108.587 6.96875C109.243 7.75 109.748 8.69792 110.103 9.8125C110.457 10.9167 110.634 12.1667 110.634 13.5625ZM106.243 14.25V13.5156C106.243 12.6615 106.175 11.9063 106.04 11.25C105.905 10.5833 105.712 10.0208 105.462 9.5625C105.212 9.10417 104.905 8.76042 104.54 8.53125C104.186 8.29167 103.78 8.17188 103.321 8.17188C102.853 8.17188 102.436 8.29167 102.071 8.53125C101.707 8.77083 101.399 9.11979 101.149 9.57813C100.91 10.026 100.728 10.5833 100.603 11.25C100.478 11.9063 100.415 12.6615 100.415 13.5156V14.25C100.415 15.1042 100.478 15.8646 100.603 16.5313C100.728 17.1875 100.915 17.75 101.165 18.2188C101.425 18.6875 101.733 19.0417 102.087 19.2813C102.451 19.5208 102.873 19.6406 103.353 19.6406C103.8 19.6406 104.201 19.5208 104.556 19.2813C104.92 19.0417 105.222 18.6875 105.462 18.2188C105.712 17.75 105.905 17.1875 106.04 16.5313C106.175 15.8646 106.243 15.1042 106.243 14.25ZM126.774 13.1563V20.7813C126.483 21.125 126.045 21.4896 125.462 21.875C124.879 22.2604 124.149 22.5885 123.274 22.8594C122.399 23.1198 121.358 23.25 120.149 23.25C119.045 23.25 118.04 23.0573 117.134 22.6719C116.238 22.276 115.467 21.7031 114.821 20.9531C114.175 20.1927 113.675 19.2656 113.321 18.1719C112.967 17.0677 112.79 15.8021 112.79 14.375V13.4219C112.79 11.9844 112.962 10.7188 113.306 9.625C113.66 8.53125 114.155 7.60417 114.79 6.84375C115.425 6.08333 116.181 5.51042 117.056 5.125C117.931 4.72917 118.894 4.53125 119.946 4.53125C121.488 4.53125 122.738 4.80208 123.696 5.34375C124.655 5.875 125.379 6.61979 125.868 7.57813C126.358 8.52604 126.66 9.61979 126.774 10.8594H122.54C122.478 10.2656 122.353 9.77083 122.165 9.375C121.978 8.97917 121.712 8.68229 121.368 8.48438C121.035 8.27604 120.597 8.17188 120.056 8.17188C119.629 8.17188 119.238 8.27604 118.884 8.48438C118.53 8.69271 118.222 9.01042 117.962 9.4375C117.712 9.86458 117.519 10.4063 117.384 11.0625C117.248 11.7188 117.181 12.4948 117.181 13.3906V14.375C117.181 15.2604 117.248 16.0313 117.384 16.6875C117.519 17.3438 117.717 17.8906 117.978 18.3281C118.238 18.7656 118.576 19.0938 118.993 19.3125C119.41 19.5208 119.899 19.625 120.462 19.625C121.014 19.625 121.431 19.5521 121.712 19.4063C122.004 19.2604 122.228 19.1146 122.384 18.9688V16.3594H119.806V13.1563H126.774Z" fill="#E7E7E7"/>
<path d="M71.501 33.2812L67.376 48H64.3994L69.8135 30.9375H71.665L71.501 33.2812ZM74.7939 48L70.6572 33.2812L70.458 30.9375H72.3447L77.7822 48H74.7939ZM74.8643 41.6602V44.0508H66.9189V41.6602H74.8643ZM85.7158 44.4141C85.7158 44.1641 85.6846 43.9375 85.6221 43.7344C85.5596 43.5312 85.4463 43.3477 85.2822 43.1836C85.126 43.0195 84.9072 42.8672 84.626 42.7266C84.3525 42.5781 84.001 42.4375 83.5713 42.3047C82.876 42.1094 82.2627 41.8906 81.7314 41.6484C81.208 41.4062 80.7666 41.1211 80.4072 40.793C80.0557 40.457 79.79 40.0664 79.6104 39.6211C79.4307 39.1758 79.3408 38.6562 79.3408 38.0625C79.3408 37.4844 79.4463 36.957 79.6572 36.4805C79.8682 36.0039 80.1689 35.5938 80.5596 35.25C80.958 34.8984 81.4229 34.6289 81.9541 34.4414C82.4932 34.2539 83.0869 34.1602 83.7354 34.1602C84.6807 34.1602 85.501 34.3398 86.1963 34.6992C86.8916 35.0508 87.4307 35.543 87.8135 36.1758C88.1963 36.8086 88.3877 37.5391 88.3877 38.3672H85.6572C85.6572 37.9922 85.5869 37.6523 85.4463 37.3477C85.3057 37.0352 85.0947 36.7891 84.8135 36.6094C84.5322 36.4219 84.1729 36.3281 83.7354 36.3281C83.3213 36.3281 82.9854 36.4062 82.7275 36.5625C82.4697 36.7109 82.2822 36.9141 82.165 37.1719C82.0479 37.4219 81.9893 37.6914 81.9893 37.9805C81.9893 38.207 82.0283 38.4141 82.1064 38.6016C82.1924 38.7891 82.3252 38.9609 82.5049 39.1172C82.6846 39.2656 82.915 39.4102 83.1963 39.5508C83.4854 39.6836 83.833 39.8164 84.2393 39.9492C84.9268 40.1367 85.5283 40.3594 86.0439 40.6172C86.5596 40.875 86.9893 41.1797 87.333 41.5312C87.6768 41.875 87.9346 42.2812 88.1064 42.75C88.2783 43.2109 88.3643 43.7422 88.3643 44.3438C88.3643 44.9453 88.2588 45.4844 88.0479 45.9609C87.8447 46.4375 87.5439 46.8398 87.1455 47.168C86.7549 47.4961 86.2822 47.75 85.7275 47.9297C85.1807 48.1016 84.5596 48.1875 83.8643 48.1875C83.2549 48.1875 82.6572 48.1016 82.0713 47.9297C81.4854 47.7578 80.958 47.4922 80.4893 47.1328C80.0205 46.7734 79.6455 46.3164 79.3643 45.7617C79.083 45.1992 78.9424 44.5352 78.9424 43.7695H81.6963C81.6963 44.1758 81.7432 44.5234 81.8369 44.8125C81.9307 45.0938 82.0713 45.3242 82.2588 45.5039C82.4541 45.6836 82.6924 45.8164 82.9736 45.9023C83.2627 45.9883 83.5908 46.0312 83.958 46.0312C84.3955 46.0312 84.7432 45.957 85.001 45.8086C85.2588 45.6602 85.4424 45.4648 85.5518 45.2227C85.6611 44.9727 85.7158 44.7031 85.7158 44.4141ZM96.8721 44.4141C96.8721 44.1641 96.8408 43.9375 96.7783 43.7344C96.7158 43.5312 96.6025 43.3477 96.4385 43.1836C96.2822 43.0195 96.0635 42.8672 95.7822 42.7266C95.5088 42.5781 95.1572 42.4375 94.7275 42.3047C94.0322 42.1094 93.4189 41.8906 92.8877 41.6484C92.3643 41.4062 91.9229 41.1211 91.5635 40.793C91.2119 40.457 90.9463 40.0664 90.7666 39.6211C90.5869 39.1758 90.4971 38.6562 90.4971 38.0625C90.4971 37.4844 90.6025 36.957 90.8135 36.4805C91.0244 36.0039 91.3252 35.5938 91.7158 35.25C92.1143 34.8984 92.5791 34.6289 93.1104 34.4414C93.6494 34.2539 94.2432 34.1602 94.8916 34.1602C95.8369 34.1602 96.6572 34.3398 97.3525 34.6992C98.0479 35.0508 98.5869 35.543 98.9697 36.1758C99.3525 36.8086 99.5439 37.5391 99.5439 38.3672H96.8135C96.8135 37.9922 96.7432 37.6523 96.6025 37.3477C96.4619 37.0352 96.251 36.7891 95.9697 36.6094C95.6885 36.4219 95.3291 36.3281 94.8916 36.3281C94.4775 36.3281 94.1416 36.4062 93.8838 36.5625C93.626 36.7109 93.4385 36.9141 93.3213 37.1719C93.2041 37.4219 93.1455 37.6914 93.1455 37.9805C93.1455 38.207 93.1846 38.4141 93.2627 38.6016C93.3486 38.7891 93.4814 38.9609 93.6611 39.1172C93.8408 39.2656 94.0713 39.4102 94.3525 39.5508C94.6416 39.6836 94.9893 39.8164 95.3955 39.9492C96.083 40.1367 96.6846 40.3594 97.2002 40.6172C97.7158 40.875 98.1455 41.1797 98.4893 41.5312C98.833 41.875 99.0908 42.2812 99.2627 42.75C99.4346 43.2109 99.5205 43.7422 99.5205 44.3438C99.5205 44.9453 99.415 45.4844 99.2041 45.9609C99.001 46.4375 98.7002 46.8398 98.3018 47.168C97.9111 47.4961 97.4385 47.75 96.8838 47.9297C96.3369 48.1016 95.7158 48.1875 95.0205 48.1875C94.4111 48.1875 93.8135 48.1016 93.2275 47.9297C92.6416 47.7578 92.1143 47.4922 91.6455 47.1328C91.1768 46.7734 90.8018 46.3164 90.5205 45.7617C90.2393 45.1992 90.0986 44.5352 90.0986 43.7695H92.8525C92.8525 44.1758 92.8994 44.5234 92.9932 44.8125C93.0869 45.0938 93.2275 45.3242 93.415 45.5039C93.6104 45.6836 93.8486 45.8164 94.1299 45.9023C94.4189 45.9883 94.7471 46.0312 95.1143 46.0312C95.5518 46.0312 95.8994 45.957 96.1572 45.8086C96.415 45.6602 96.5986 45.4648 96.708 45.2227C96.8174 44.9727 96.8721 44.7031 96.8721 44.4141ZM104.606 34.3477V48H101.864V34.3477H104.606ZM113.606 44.4141C113.606 44.1641 113.575 43.9375 113.513 43.7344C113.45 43.5312 113.337 43.3477 113.173 43.1836C113.017 43.0195 112.798 42.8672 112.517 42.7266C112.243 42.5781 111.892 42.4375 111.462 42.3047C110.767 42.1094 110.153 41.8906 109.622 41.6484C109.099 41.4062 108.657 41.1211 108.298 40.793C107.946 40.457 107.681 40.0664 107.501 39.6211C107.321 39.1758 107.231 38.6562 107.231 38.0625C107.231 37.4844 107.337 36.957 107.548 36.4805C107.759 36.0039 108.06 35.5938 108.45 35.25C108.849 34.8984 109.313 34.6289 109.845 34.4414C110.384 34.2539 110.978 34.1602 111.626 34.1602C112.571 34.1602 113.392 34.3398 114.087 34.6992C114.782 35.0508 115.321 35.543 115.704 36.1758C116.087 36.8086 116.278 37.5391 116.278 38.3672H113.548C113.548 37.9922 113.478 37.6523 113.337 37.3477C113.196 37.0352 112.985 36.7891 112.704 36.6094C112.423 36.4219 112.063 36.3281 111.626 36.3281C111.212 36.3281 110.876 36.4062 110.618 36.5625C110.36 36.7109 110.173 36.9141 110.056 37.1719C109.938 37.4219 109.88 37.6914 109.88 37.9805C109.88 38.207 109.919 38.4141 109.997 38.6016C110.083 38.7891 110.216 38.9609 110.396 39.1172C110.575 39.2656 110.806 39.4102 111.087 39.5508C111.376 39.6836 111.724 39.8164 112.13 39.9492C112.817 40.1367 113.419 40.3594 113.935 40.6172C114.45 40.875 114.88 41.1797 115.224 41.5312C115.567 41.875 115.825 42.2812 115.997 42.75C116.169 43.2109 116.255 43.7422 116.255 44.3438C116.255 44.9453 116.149 45.4844 115.938 45.9609C115.735 46.4375 115.435 46.8398 115.036 47.168C114.646 47.4961 114.173 47.75 113.618 47.9297C113.071 48.1016 112.45 48.1875 111.755 48.1875C111.146 48.1875 110.548 48.1016 109.962 47.9297C109.376 47.7578 108.849 47.4922 108.38 47.1328C107.911 46.7734 107.536 46.3164 107.255 45.7617C106.974 45.1992 106.833 44.5352 106.833 43.7695H109.587C109.587 44.1758 109.634 44.5234 109.728 44.8125C109.821 45.0938 109.962 45.3242 110.149 45.5039C110.345 45.6836 110.583 45.8164 110.864 45.9023C111.153 45.9883 111.481 46.0312 111.849 46.0312C112.286 46.0312 112.634 45.957 112.892 45.8086C113.149 45.6602 113.333 45.4648 113.442 45.2227C113.552 44.9727 113.606 44.7031 113.606 44.4141ZM124.118 34.3477V48H121.399V34.3477H124.118ZM127.821 34.3477V36.6562H117.755V34.3477H127.821ZM134.771 37.2188L131.442 48H128.688L133.317 34.3477H135.122L134.771 37.2188ZM137.665 48L134.313 37.207L133.974 34.3477H135.813L140.419 48H137.665ZM137.747 42.9258V45.082H131.079V42.9258H137.747ZM152.138 34.3477V48H149.407L144.673 39.0469V48H142.001V34.3477H144.731L149.466 43.3477V34.3477H152.138ZM160.376 34.3477V48H157.657V34.3477H160.376ZM164.079 34.3477V36.6562H154.013V34.3477H164.079Z" fill="#E7E7E7"/>
</svg>
