<?xml version="1.0" encoding="utf-8"?>
<!-- Generator: Adobe Illustrator 16.0.0, SVG Export Plug-In . SVG Version: 6.00 Build 0)  -->
<!DOCTYPE svg PUBLIC "-//W3C//DTD SVG 1.1//EN" "http://www.w3.org/Graphics/SVG/1.1/DTD/svg11.dtd">
<svg version="1.1" id="Layer_1" xmlns="http://www.w3.org/2000/svg" xmlns:xlink="http://www.w3.org/1999/xlink" x="0px" y="0px"
	 width="283.46px" height="283.46px" viewBox="0 0 283.46 283.46" enable-background="new 0 0 283.46 283.46" xml:space="preserve">
<path fill="#ED3F24" d="M237.74,211.196c-44.426,53.154-79.127,75.715-133.202,51.396C41.357,234.179-4.133,141.837,36.431,83.03
	C75.767,26.003,145.225-2.351,202.273,39.933C257.93,81.185,287.131,152.097,237.74,211.196z"/>
<path fill="#FFCB06" d="M125.733,180.088c0.715,8.273-1.328,15.013-6.134,20.221c-2.533,2.742-7.378,6.145-14.533,10.209
	c-3.261,1.176-6.684,2.063-10.273,2.674c-10.542,1.793-18.503,0.879-23.89-2.754c-1.362-1.23-3.851-12.475-7.468-33.734
	c-4.291-25.227-6.052-39.18-5.272-41.852c4.465-5.381,11.972-8.971,22.512-10.764c3.063-0.521,5.41-0.762,7.03-0.73
	c8.488,0.172,15.132,2.142,19.925,5.911c4.795,3.767,7.89,9.075,9.288,15.922c0.085,4.146-0.997,7.72-3.256,10.722
	c-1.004,1.328,8.797,2.135,5.268,4.891c5.009,0.074-2.77,3.121,0.794,6.671C123.289,171.027,125.294,175.232,125.733,180.088z
	 M95.009,184.62l0.019,0.111c0.229-1.812,0.243-3.313,0.039-4.514c-0.586-3.442-2.036-4.967-4.354-4.572
	c-1.271,0.216-2.42,0.912-3.451,2.089c0.239,0.96,1.229,12.886,1.698,14.729c2.192-0.68,3.765-1.835,4.721-3.459
	C94.086,188.242,94.529,186.78,95.009,184.62z M90.664,146.193l-0.092,0.13c-0.707-1.883-2.515-2.577-5.43-2.081
	c-0.972,0.165-1.518,0.335-1.643,0.509c-0.511,0.167-0.916,0.736-1.209,1.709c1.274,4.331,2.155,9.265,2.633,14.804
	c0,0,3.569-2.755,4.398-3.982c2.551-3.779,2.199-7.422,1.855-9.441C91.112,147.463,90.942,146.915,90.664,146.193z"/>
<path fill="#FFFFFF" d="M211.314,135.982c-5.098-4.57-12.967-6.291-18.9-6.291c-1.334,0-2.598,0.113-3.779,0.334
	c-13.205,2.449-21.844,13.369-25.922,32.752c-0.893,4.232-1.338,8.84-1.338,13.813c0,10.846,2.781,20.051,8.348,27.627
	c6.521,8.91,15.689,13.809,27.475,13.367c26.531-0.992,30.035-33.195,30.035-38.988
	C227.232,171.764,227.639,150.613,211.314,135.982z M197.756,155.238c-1.588,5.768-7.551,9.154-13.314,7.566
	c-5.768-1.588-9.156-7.547-7.57-13.314c1.588-5.766,7.551-9.156,13.318-7.568C195.953,143.51,199.342,149.473,197.756,155.238z"/>
<path fill="#FFFFFF" d="M161.105,130.908c-5.127-4.764-10.926-7.219-16.959-7.852c-1.358-0.143-2.653-0.16-3.883-0.063
	c-13.686,1.082-23.637,11.264-29.852,30.537c-1.354,4.211-2.301,8.848-2.832,13.904c-1.156,11.027,0.689,20.686,5.539,28.982
	c5.684,9.758,14.52,15.268,26.512,16.525c6.487,0.682,12.383-0.492,17.698-3.525c5.309-3.027,9.268-7.502,11.873-13.414
	l-0.104-0.123l-0.115-0.012c2.949-7.021,4.732-13.477,5.35-19.365C175.061,169.557,178.49,147.053,161.105,130.908z
	 M154.146,161.193c-5.98,0-10.83-4.848-10.83-10.83c0-5.979,4.85-10.83,10.83-10.83s10.83,4.852,10.83,10.83
	C164.977,156.346,160.127,161.193,154.146,161.193z"/>
<path fill="#FFFFFF" d="M122.869,117.949c0.824,0.131,1.707-0.047,2.646-0.533c0.934-0.49,1.592-1.094,1.977-1.811
	c0.836-1.527,1.307-3.617,1.416-6.264c0.1-2.393-0.09-4.82-0.57-7.303c1.979,6.402,3.645,10.846,5,13.35
	c2.006-0.398,3.928-0.605,5.713-0.672c1.348-0.051,2.738-0.002,4.141,0.141c1.418-2.793,2.258-7.318,2.516-13.58
	c0.135-3.271,0.121-6.756-0.045-10.457l-0.002,0.047c-0.104-2.266-0.219-3.764-0.344-4.506c-0.631-3.459-2.5-5.258-5.606-5.387
	c-1.766-0.072-3.146,0.461-4.162,1.598c-0.873,0.982-1.344,2.248-1.406,3.811c-0.055,1.301,0.055,3.355,0.316,6.17
	c0.16,1.6,0.361,3.451,0.594,5.564c-0.533-2.727-1.123-5.092-1.773-7.09c-1.6-4.967-3.305-7.986-5.119-9.045
	c-0.699-0.256-1.396-0.395-2.098-0.422c-1.32-0.055-2.523,0.277-3.611,0.994c-1.881,1.266-3.123,2.916-3.721,4.963
	c-0.789,2.738-1.344,8.141-1.676,16.186c-0.17,4.137,0.016,7.205,0.582,9.201C118.47,115.908,120.216,117.59,122.869,117.949z"/>
<path fill="#FFFFFF" d="M157.93,119.309c0.26-1.111,0.422-2.369,0.467-3.805c0.072-2.391-0.141-4.818-0.641-7.293
	c3.018,9.414,5.309,14.592,6.887,15.533c1.275,0.355,2.307,0.543,3.109,0.568c0.672,0.021,1.271-0.051,1.791-0.227
	c3.404-1.135,5.26-6.744,5.572-16.816c0.102-3.275,0.053-6.758-0.152-10.459l-0.002,0.047c-0.127-2.264-0.256-3.76-0.393-4.5
	c-0.664-3.455-2.551-5.232-5.662-5.33c-1.764-0.053-3.143,0.494-4.143,1.643c-0.865,0.99-1.32,2.26-1.369,3.822
	c-0.039,1.303,0.09,3.357,0.385,6.168c0.176,1.598,0.395,3.445,0.65,5.557c-0.561-2.721-1.178-5.08-1.85-7.07
	c-1.646-4.951-3.383-7.951-5.215-8.99c-0.697-0.25-1.402-0.381-2.102-0.402c-1.318-0.041-2.518,0.305-3.6,1.033
	c-1.865,1.283-3.096,2.947-3.666,5.002c-0.76,2.744-1.264,8.152-1.514,16.201c-0.061,2.008-0.037,3.76,0.068,5.262
	C150.598,115.984,154.398,117.34,157.93,119.309z"/>
<path fill="#FFFFFF" d="M186.301,121.19c1.713-0.325,3.533-0.493,5.398-0.497c1.156-0.004,3.252,0.062,5.842,0.417
	c0.064-0.442,0.088-0.881,0.037-1.318c-0.127-1.2-0.859-2.062-2.174-2.563c-0.836-0.351-1.906-0.348-3.225,0.009
	c-0.672-0.385-1.016-0.955-1.016-1.719c0.287-1.656,0.395-2.676,0.33-3.055c0.705-0.064,1.188-0.05,1.447,0.047
	c1.439,0.157,2.785-0.309,4.031-1.396c1.381-1.146,2.066-2.565,2.061-4.253c0.033-0.505-0.02-1.002-0.15-1.476
	c-1.096-1.496-2.459-2.237-4.092-2.233c-1.412,0.004-2.584,0.374-3.512,1.107c-0.576-0.126-0.916-0.409-1.014-0.85
	c0.031-0.19,0.08-0.944,0.141-2.27c0.025-1.037,0.152-1.792,0.377-2.271c0.256-0.001,0.611-0.002,1.057-0.004
	c1.83-0.005,3.26-0.437,4.277-1.299c1.029-0.862,1.537-1.975,1.535-3.345c-0.002-0.631-0.1-1.21-0.295-1.715
	c-0.451-1.241-1.924-1.854-4.428-1.849c-1.258,0.003-2.57,0.148-3.947,0.438l-8.031,0.83c-1.316,0.902-2.178,2.842-2.584,5.828
	c-0.691,5.158-1.018,9.735-0.977,13.748c0.041,5.496,0.48,9.491,1.313,11.994C181.096,122.471,183.627,121.694,186.301,121.19z"/>
<path fill="#FFFFFF" d="M199.867,119.276c-0.045,0.886-0.037,1.669,0.025,2.364c3.123,0.841,6.627,2.155,9.965,4.216
	c0.234-0.12,0.475-0.23,0.711-0.376c1.027-1.082,1.584-2.593,1.689-4.541c0.029-0.595,0.02-1.305-0.031-2.122
	c2.545,5.927,5.184,8.825,7.922,8.678c1.418-0.082,2.852-0.711,4.291-1.872c1.107-0.928,1.914-1.859,2.412-2.788l0.049,0.004
	c0.088-0.378,0.133-0.663,0.141-0.854c0.141-2.603-1.504-5.94-4.918-10.008c1.678-1.313,2.637-2.107,2.873-2.378
	c1.508-1.703,2.34-3.871,2.516-6.506c0.172-2.573-0.359-5.434-1.574-8.589c-1.664-3.171-4.938-4.971-9.83-5.391
	c-4.156,0.2-6.947,0.459-8.375,0.795c-3.031,0.734-4.814,2.269-5.354,4.625c-0.723,3.269-1.346,8.05-1.867,14.344
	c-0.455,5.565-0.643,8.401-0.545,8.502L199.867,119.276z M212.332,100.382c0.875-0.405,1.379-0.599,1.508-0.593
	c0.125,0.009,0.279,0.046,0.467,0.119l0.051,0.004c1.42,1.381,2.1,2.66,2.037,3.838c-0.045,0.854-0.506,1.647-1.393,2.383
	c-0.873,0.736-1.932,1.279-3.158,1.625c0.082-1.557,0.154-3.209,0.215-4.952C212.104,101.308,212.199,100.502,212.332,100.382z"/>
<path fill="#FFFFFF" d="M79.442,114.846c1.271-0.169,2.535-0.302,3.795-0.413c1.031-1.825,1.497-3.988,1.372-6.507
	c-0.11-2.117-0.92-3.976-2.423-5.569c-1.509-1.599-3.362-2.453-5.555-2.558c1.589-1.147,2.614-2.003,3.083-2.565
	c1.04-1.267,1.574-2.804,1.604-4.608c-0.497-2.998-1.769-5.348-3.809-7.064c-2.044-1.71-4.924-2.672-8.645-2.872
	c-0.715-0.039-1.748,0.03-3.101,0.211c-4.654,0.618-8.006,2.066-10.055,4.339c-0.39,1.145,0.153,7.242,1.618,18.266
	c1.084,8.16,1.92,12.947,2.494,14.376C65.896,117.504,72.482,115.771,79.442,114.846z M66.662,91.926
	c0.057-0.074,0.3-0.145,0.726-0.201c1.29-0.171,2.072,0.158,2.35,0.988l0.044-0.055c0.111,0.322,0.173,0.561,0.195,0.727
	c0.117,0.883-0.205,2.242-0.966,4.073l-2,1.666c-0.122-2.415-0.422-4.571-0.912-6.478C66.247,92.226,66.438,91.989,66.662,91.926z
	 M67.933,108.695c-0.019-1.162-0.075-1.956-0.166-2.373c0.474-0.499,0.987-0.783,1.549-0.858c1.024-0.136,1.635,0.549,1.836,2.058
	c0.069,0.522,0.04,1.173-0.093,1.955l-0.005-0.043c-0.246,0.928-0.465,1.556-0.656,1.885c-0.444,0.691-1.153,1.169-2.126,1.433
	c-0.177-0.81-0.275-1.315-0.301-1.511C67.93,110.946,67.917,110.091,67.933,108.695z"/>
<path fill="#FFFFFF" d="M97.794,116.756c0.369-0.988,0.564-1.956,0.564-2.896c-0.061-0.594-0.131-1.039-0.197-1.336
	c1.701-0.199,3.217-0.266,4.549-0.199c0,1.354,0.213,2.463,0.646,3.318c0.137,0.297,0.57,0.922,1.301,1.881
	c1.033,0.762,2.365,1.143,3.994,1.143c0.902,0,1.768-0.102,2.6-0.297c1.666-0.396,2.65-1.393,2.951-2.973v-0.049
	c0.531-2.738,0.795-5.662,0.795-8.766c0-5.285-0.912-11.41-2.75-18.379c-0.496-1.947-1.346-3.646-2.545-5.102
	c-2.033-2.477-5.045-3.713-9.041-3.713c-3.732,0-6.576,1.271-8.541,3.811c-2.533,3.303-4.299,7.035-5.299,11.197
	c-0.697,2.938-1.182,6.998-1.449,12.186c-0.068,1.348-0.098,2.209-0.098,2.572c0,2.081,0.202,3.866,0.605,5.359
	C89.967,115.161,93.943,115.911,97.794,116.756z M99.064,96.922c0.193-1.75,0.514-4.029,0.945-6.84
	c0.471-0.393,0.818-0.479,1.053-0.246c0.566,5.682,0.73,9.855,0.498,12.533c-0.1,0-0.422,0.061-0.973,0.174
	c-0.547,0.117-0.896,0.172-1.027,0.172c-0.396,0-0.678-0.18-0.848-0.545C98.613,101.74,98.732,99.99,99.064,96.922z"/>
</svg>
